<svg width="75" height="16" viewBox="0 0 75 16" fill="none" xmlns="http://www.w3.org/2000/svg">
<g clip-path="url(#clip0_991_2302)">
<path d="M0 15.7246V0H9.11989C9.88056 0 10.5808 0.170743 11.2016 0.507429C11.821 0.843886 12.3273 1.3184 12.7065 1.91794C13.0837 2.51474 13.2751 3.23314 13.2751 4.05303C13.2751 4.5312 13.1762 4.99429 12.9811 5.42926C12.784 5.86834 12.5217 6.26149 12.2009 6.59794C11.8811 6.93349 11.5049 7.20709 11.0826 7.41143L10.7301 7.58217L11.0959 7.72251C11.5897 7.912 12.0354 8.20411 12.421 8.59063C12.8086 8.97966 13.1204 9.43017 13.3476 9.92937C13.5727 10.4251 13.6869 10.9728 13.6869 11.557C13.6869 12.3778 13.4914 13.1122 13.1058 13.7399C12.7193 14.3691 12.1981 14.8622 11.5573 15.2053C10.914 15.5499 10.1789 15.7246 9.3717 15.7246H0ZM3.50553 12.8738H8.3877C8.7539 12.8738 9.07659 12.7879 9.34686 12.6185C9.61394 12.4512 9.82974 12.2222 9.98812 11.9378C10.1465 11.6533 10.2269 11.3399 10.2269 11.0059C10.2269 10.672 10.1467 10.3362 9.98812 10.0512C9.82906 9.76617 9.61234 9.54057 9.34367 9.38012C9.07385 9.21966 8.75231 9.13829 8.3877 9.13829H3.50553V12.8736V12.8738ZM3.50553 6.42537H7.9987C8.31956 6.42537 8.619 6.33943 8.88904 6.17006C9.15635 6.00274 9.36828 5.78149 9.51868 5.51269C9.66977 5.24389 9.74634 4.95337 9.74634 4.64937C9.74634 4.31451 9.66931 4.01189 9.51754 3.74949C9.366 3.48777 9.1568 3.27794 8.89588 3.12571C8.63427 2.97349 8.33232 2.89623 7.9987 2.89623H3.50553V6.42514V6.42537Z" fill="black"/>
<path d="M22.0288 16.0002C20.8589 16.0002 19.7933 15.7371 18.8622 15.2183C17.9315 14.6999 17.1827 13.9789 16.6367 13.0756C16.0913 12.1741 15.8147 11.1383 15.8147 9.99678C15.8147 8.85529 16.0911 7.84706 16.6364 6.95266C17.1822 6.05712 17.9349 5.34009 18.8733 4.82123C19.812 4.30238 20.8737 4.03906 22.0291 4.03906C23.1844 4.03906 24.2603 4.30192 25.1839 4.82055C26.1066 5.33918 26.8479 6.05621 27.3868 6.95175C27.9249 7.84661 28.1976 8.87861 28.1976 10.0194C28.1976 11.1602 27.9249 12.1741 27.3866 13.0763C26.8474 13.9796 26.1064 14.7003 25.1839 15.2185C24.2603 15.7371 23.199 16 22.0291 16L22.0288 16.0002ZM22.0058 6.77506C21.4256 6.77506 20.9056 6.92341 20.4603 7.21575C20.0178 7.50626 19.6707 7.89895 19.4294 8.38329C19.1899 8.86375 19.0684 9.40661 19.0684 9.99678C19.0684 10.5869 19.1899 11.1527 19.4294 11.6331C19.6707 12.1172 20.0175 12.5101 20.4603 12.8007C20.9056 13.0932 21.4256 13.2413 22.0056 13.2413C22.5856 13.2413 23.1282 13.093 23.5739 12.8007C24.0169 12.5097 24.3637 12.1168 24.6048 11.6331C24.8443 11.1527 24.9658 10.602 24.9658 9.99678C24.9658 9.39152 24.8443 8.86398 24.6048 8.38329C24.3635 7.89941 24.0167 7.50672 23.5739 7.21575C23.1282 6.92318 22.6004 6.77506 22.0056 6.77506H22.0058Z" fill="black"/>
<path d="M36.539 15.9998C35.3684 15.9998 34.3448 15.7674 33.4963 15.3086C32.6502 14.8515 31.9907 14.2352 31.5361 13.4773C31.0817 12.7203 30.8511 11.8503 30.8511 10.8912V4.29102H34.0592V10.7994C34.0592 11.241 34.167 11.6517 34.3794 12.0202C34.5911 12.3884 34.8889 12.6871 35.2638 12.9077C35.6391 13.1287 36.0605 13.241 36.516 13.241C36.9716 13.241 37.3902 13.1285 37.7584 12.907C38.1247 12.6867 38.4179 12.3884 38.6301 12.0204C38.8425 11.651 38.9503 11.2405 38.9503 10.7996L38.8452 4.29124H42.0761L42.1814 10.8942C42.1814 11.8506 41.9547 12.721 41.5071 13.4784C41.0596 14.2364 40.4076 14.8524 39.5699 15.3091C38.7292 15.7674 37.7094 15.9998 36.539 15.9998Z" fill="black"/>
<path d="M74.7723 13.1651V15.6627C74.7723 15.6967 74.7452 15.7255 74.7115 15.7255H68.4449C67.8228 15.7255 67.2903 15.5932 66.8609 15.3356C66.528 15.1356 66.2507 14.8828 66.0344 14.5827C65.9701 14.4944 65.9109 14.403 65.8587 14.3082C65.6559 13.9452 65.5374 13.5399 65.5087 13.1043C65.5036 13.033 65.5018 12.9619 65.5018 12.889C65.5018 12.4023 65.6235 11.9564 65.8653 11.5664C66.1121 11.168 66.4485 10.817 66.8694 10.5271L71.0683 7.75822C71.1258 7.73284 71.1748 7.70062 71.2153 7.65993L71.7732 7.29193C71.829 7.25467 71.8646 7.19182 71.8646 7.12073C71.8646 7.0053 71.7732 6.91227 71.6583 6.91227H66.0663C66.0326 6.91227 66.0054 6.88507 66.0054 6.85124V4.35387C66.0054 4.31982 66.0326 4.29102 66.0663 4.29102H72.1045C72.6792 4.29102 73.1847 4.42656 73.6056 4.69124C73.9522 4.90816 74.2446 5.18473 74.4761 5.51022C74.5301 5.58313 74.5791 5.65764 74.6249 5.73582C74.8024 6.0341 74.9173 6.36142 74.9697 6.71067C75.0779 7.43639 74.8886 8.18747 74.4508 8.77582C74.2411 9.06062 73.9825 9.30656 73.6799 9.51182L73.1491 9.8645L69.5028 12.2823C69.4638 12.3027 69.4285 12.3264 69.3964 12.3518L69.3895 12.3568L68.8654 12.7061L68.8367 12.7246C68.7827 12.7619 68.7471 12.8247 68.7471 12.8942C68.7471 13.0112 68.8401 13.1045 68.9549 13.1045H74.711C74.7448 13.1045 74.7719 13.1315 74.7719 13.1655L74.7723 13.1651Z" fill="black"/>
<path d="M48.77 15.7254C48.3915 8.89681 44.8812 7.90253 44.7319 7.86367L44.7552 7.86915L45.3463 5.19167C45.5061 5.2271 48.157 5.86527 49.9375 9.25315C50.9825 6.18595 52.5939 4.25933 54.7381 3.51853C56.3676 2.95533 58.1463 3.23601 59.6177 4.28858C61.7509 5.81453 62.9744 8.64173 62.9744 12.0456H60.2403C60.2403 9.57635 59.4142 7.51121 58.0303 6.52127C57.497 6.14001 56.6479 5.75921 55.6289 6.11121C52.4852 7.19761 51.5835 13.3994 51.5012 15.6973L48.77 15.7254Z" fill="#5CC196"/>
</g>
<defs>
<clipPath id="clip0_991_2302">
<rect width="75" height="16" fill="white"/>
</clipPath>
</defs>
</svg>
