<svg width="75" height="22" viewBox="0 0 75 22" fill="none" xmlns="http://www.w3.org/2000/svg">
<rect width="75" height="22" fill="black"/>
<path d="M6.15957 5.43506H3.63708V16.5551H6.15957V5.43506Z" fill="white"/>
<path d="M13.2577 7.47085C14.7634 7.47085 15.5553 8.29669 15.5553 9.85234V16.5551H18.0778V9.85234C18.0778 6.89468 16.318 5.20459 13.2577 5.20459C10.1975 5.20459 8.43762 6.89468 8.43762 9.85234V16.5551H10.9601V9.85234C10.9601 8.29669 11.7521 7.47085 13.2577 7.47085Z" fill="white"/>
<path d="M45.4634 12.3203H42.9409V16.5647H45.4634V12.3203Z" fill="white"/>
<path d="M44.2804 13.9239C47.3407 13.9239 49.1005 12.2338 49.1005 9.27618V5.43506H46.578V9.27618C46.578 10.8318 45.7861 11.6577 44.2804 11.6577C42.7748 11.6577 41.9828 10.8318 41.9828 9.27618V5.43506H39.4603V9.27618C39.4603 12.2338 41.2202 13.9239 44.2804 13.9239Z" fill="white"/>
<path d="M28.2558 5.43506H19.3489V7.70132H22.5264V16.5551H25.0489V7.70132H28.2558V5.43506Z" fill="white"/>
<path d="M33.6625 16.7856C36.2241 16.7856 37.8764 15.3932 37.8764 13.2421C37.8764 11.0911 35.8526 10.2365 34.2198 9.94837C33.1639 9.76592 32.0786 9.57386 32.0786 8.64239C32.0786 7.71092 32.5088 7.27879 33.7212 7.27879C34.9335 7.27879 35.2464 7.72052 35.3442 8.46954H37.6907C37.5147 6.48176 35.9699 5.20459 33.6821 5.20459C31.3942 5.20459 29.6637 6.6258 29.6637 8.74802C29.6637 10.8702 31.6778 11.7537 33.3008 12.0418C34.3469 12.2338 35.4224 12.4259 35.4224 13.3478C35.4224 14.2696 35.1193 14.7114 33.6625 14.7114C32.2057 14.7114 31.9711 14.1064 31.9124 13.5302H29.4584C29.5953 15.5372 31.1889 16.776 33.6625 16.776V16.7856Z" fill="white"/>
<path d="M55.1721 5.43506H51.2222V16.5551H55.1721C59.0341 16.5551 61.2437 14.5289 61.2437 10.9951C61.2437 7.46125 59.0341 5.43506 55.1721 5.43506ZM55.1721 14.2984H53.7447V7.71092H55.1721C57.4697 7.71092 58.6919 8.85365 58.6919 11.0047C58.6919 13.1557 57.4795 14.2984 55.1721 14.2984Z" fill="white"/>
<path d="M71.3532 7.70132V5.43506H63.0916V16.5551H71.3532V14.2984H65.614V11.8689H70.3168V9.94837H65.614V7.70132H71.3532Z" fill="white"/>
</svg>
