<svg width="75" height="16" viewBox="0 0 75 16" fill="none" xmlns="http://www.w3.org/2000/svg">
<g clip-path="url(#clip0_991_2289)">
<path d="M12.441 16H0V0H2.427V15.1646H12.441V16Z" fill="#080809"/>
<path d="M18.1102 5.7591V0H20.5627V5.7591C20.5627 8.19643 22.2487 10.8815 26.1067 10.8815C29.76 10.8815 31.9057 8.67012 31.9057 5.7591V0H33.0045V5.7591C33.0045 9.52805 30.2197 11.6037 26.0812 11.6037C21.9427 11.6037 18.1102 9.52805 18.1102 5.7591Z" fill="#080809"/>
<path d="M45.0097 7.76316C41.28 9.56847 40.743 13.4726 40.59 16H38.0347C37.9327 12.9532 40.845 9.2074 44.5747 7.28947L38.0355 0H41.0752L48.5355 8.30442C52.3927 6.52164 52.9297 2.54996 53.0827 0H55.638C55.74 3.06936 52.7512 6.8827 48.9442 8.77877L55.4332 16H52.419L45.0105 7.76316H45.0097Z" fill="#080809"/>
<path d="M72.3428 16C72.0106 13.7886 72.1126 10.7868 67.6936 8.89139C67.6681 8.89139 67.6171 8.91392 67.6171 8.91392L64.5263 10.223C63.9646 10.4715 63.5296 11.0352 63.5296 11.6222L63.5551 16H61.1281V0H68.2043C72.8791 0 74.6933 1.62511 74.5651 3.52052C74.2838 6.43153 70.9628 7.60482 68.5103 8.55286C72.8791 9.79372 74.6416 12.6822 74.9993 16H72.3421H72.3428ZM63.5296 0.835411V10.1323L67.6171 8.43957C70.0696 7.42396 71.7811 6.45406 71.9348 3.83587C72.0368 2.16571 71.3986 0.834748 68.2051 0.834748H63.5303L63.5296 0.835411Z" fill="#080809"/>
<path d="M25.566 14.9656L33.0075 14.5264V15.9998L25.566 15.5605" fill="#080809"/>
<path d="M25.5661 15.56L18.1073 15.9993V14.5259L25.5661 14.9651" fill="#080809"/>
</g>
<defs>
<clipPath id="clip0_991_2289">
<rect width="75" height="16" fill="white"/>
</clipPath>
</defs>
</svg>
