<svg width="80" height="80" viewBox="0 0 80 80" fill="none" xmlns="http://www.w3.org/2000/svg">
<path d="M62.4714 0H40.9526C40.1502 0 39.4995 0.645131 39.4995 1.44079V14.0942C39.4995 15.8538 38.0604 17.2806 36.2858 17.2806H16.5289C8.50414 17.2794 2.00015 23.7294 2.00015 31.6848V65.5946C2.00015 73.55 8.50414 80 16.5289 80H38.0477C38.8501 80 39.5008 79.3549 39.5008 78.5592V65.9058C39.5008 64.1462 40.9399 62.7194 42.7145 62.7194H62.4727C70.4962 62.7194 77.0014 56.2706 77.0014 48.314V14.4054C77.0014 6.45004 70.4974 0 62.4727 0H62.4714ZM59.5665 45.4336H40.9526C40.1502 45.4336 39.4995 46.0788 39.4995 46.8744V59.5342C39.4995 61.2305 38.1638 62.6156 36.4772 62.7143H19.4326V34.5664H38.0464C38.8489 34.5664 39.4995 33.9212 39.4995 33.1256V20.4658C39.4995 18.7695 40.8353 17.3844 42.5219 17.2857H59.5665V45.4336Z" fill="#F8FAFF"/>
</svg>
