<svg width="30" height="32" viewBox="0 0 30 32" fill="none" xmlns="http://www.w3.org/2000/svg">
<path d="M23.9486 0H15.4265C15.1087 0 14.851 0.258052 14.851 0.576317V5.63768C14.851 6.34151 14.2811 6.91226 13.5782 6.91226H5.75385C2.57579 6.91175 0 9.49177 0 12.6739V26.2378C0 29.42 2.57579 32 5.75385 32H14.276C14.5938 32 14.8515 31.7419 14.8515 31.4237V26.3623C14.8515 25.6585 15.4214 25.0877 16.1242 25.0877H23.9491C27.1267 25.0877 29.703 22.5082 29.703 19.3256V5.76216C29.703 2.58002 27.1272 0 23.9491 0H23.9486ZM22.7982 18.1735H15.4265C15.1087 18.1735 14.851 18.4315 14.851 18.7498V23.8137C14.851 24.4922 14.322 25.0463 13.654 25.0857H6.90382V13.8265H14.2755C14.5933 13.8265 14.851 13.5685 14.851 13.2502V8.18633C14.851 7.5078 15.38 6.95375 16.0479 6.91428H22.7982V18.1735Z" fill="#F8FAFF"/>
</svg>
